<?xml version="1.0" encoding="UTF-8" standalone="no"?>
<!-- Created with Inkscape (http://www.inkscape.org/) -->

<svg
   xmlns:dc="http://purl.org/dc/elements/1.1/"
   xmlns:cc="http://creativecommons.org/ns#"
   xmlns:rdf="http://www.w3.org/1999/02/22-rdf-syntax-ns#"
   xmlns:svg="http://www.w3.org/2000/svg"
   xmlns="http://www.w3.org/2000/svg"
   xmlns:sodipodi="http://sodipodi.sourceforge.net/DTD/sodipodi-0.dtd"
   xmlns:inkscape="http://www.inkscape.org/namespaces/inkscape"
   width="313"
   height="133.99072"
   id="svg3597"
   version="1.1"
   inkscape:version="0.48.4 r9939"
   sodipodi:docname="Nouveau document 8">
  <defs
     id="defs3599" />
  <sodipodi:namedview
     id="base"
     pagecolor="#ffffff"
     bordercolor="#666666"
     borderopacity="1.0"
     inkscape:pageopacity="0.0"
     inkscape:pageshadow="2"
     inkscape:zoom="0.49497475"
     inkscape:cx="275.60434"
     inkscape:cy="124.52588"
     inkscape:document-units="px"
     inkscape:current-layer="layer1"
     showgrid="false"
     inkscape:window-width="701"
     inkscape:window-height="563"
     inkscape:window-x="675"
     inkscape:window-y="375"
     inkscape:window-maximized="0"
     fit-margin-top="0"
     fit-margin-left="0"
     fit-margin-right="0"
     fit-margin-bottom="0" />
  <metadata
     id="metadata3602">
    <rdf:RDF>
      <cc:Work
         rdf:about="">
        <dc:format>image/svg+xml</dc:format>
        <dc:type
           rdf:resource="http://purl.org/dc/dcmitype/StillImage" />
        <dc:title></dc:title>
      </cc:Work>
    </rdf:RDF>
  </metadata>
  <g
     inkscape:label="Calque 1"
     inkscape:groupmode="layer"
     id="layer1"
     transform="translate(-292.00773,-617.6713)">
    <g
       transform="matrix(1.25,0,0,-1.25,229.50773,1899.0463)"
       id="g3909">
      <path
         inkscape:connector-curvature="0"
         transform="matrix(0.8,0,0,-0.8,0,1050)"
         id="path50"
         d="m 101.625,31.125 -11.5,17.8125 10.21875,0 13.21875,-12.5 -11.9375,-5.3125 z m 62.59375,15.53125 -3.65625,5.6875 3.75,0 4.09375,-3.875 -4.1875,-1.8125 z m 50,7.03125 c -4.59798,0 -7.875,2.697125 -7.875,6.78125 l 0,0.0625 c 0,4.4758 2.93575,5.712587 7.46875,6.875 3.76188,0.964725 4.53125,1.622488 4.53125,2.875 l 0,0.0625 c 0,1.317575 -1.22159,2.125 -3.25,2.125 -2.57458,0 -4.69659,-1.045825 -6.71875,-2.71875 l -2.9375,3.5 c 2.70579,2.414925 6.15556,3.59375 9.5625,3.59375 4.85294,0 8.25,-2.496762 8.25,-6.96875 l 0,-0.0625 c 0,-3.927688 -2.56076,-5.59005 -7.125,-6.78125 -3.8906,-0.9985 -4.875,-1.45475 -4.875,-2.9375 l 0,-0.0625 c 0,-1.09725 1.00781,-1.96875 2.90625,-1.96875 1.89094,0 3.84909,0.833625 5.84375,2.21875 l 2.59375,-3.75 c -2.28713,-1.834375 -5.09679,-2.84375 -8.375,-2.84375 z m 20.5625,0.15625 -9.625,22.6875 5.03125,0 2.0625,-5.0625 9.5,0 2.0625,5.0625 5.1875,0 -9.65625,-22.6875 -4.5625,0 z m -58.46875,0.25 0,22.53125 16.1875,0 0,-4.5 -11.21875,0 0,-18.03125 -4.96875,0 z m -21.53125,0.03125 0,22.5 17.15625,0 0,-4.40625 -12.21875,0 0,-4.71875 10.59375,0 0,-4.4375 -10.59375,0 0,-4.5625 12.03125,0 0,-4.375 -16.96875,0 z m 41.65625,0 0,22.5 4.9375,0 0,-22.5 -4.9375,0 z M 85.375,54.25 l 0,20.4375 49.25,0 0,-20.4375 -49.25,0 z M 237,59.78125 l 3,7.3125 -6,0 3,-7.3125 z m -151.625,24.875 0,20.9375 49.25,0 0,-20.9375 -49.25,0 z m 149.6875,0.0625 c -6.94509,0 -11.96875,5.248575 -11.96875,11.65625 l 0,0.0625 c 0,6.40641 4.96491,11.59375 11.90625,11.59375 6.94759,0 12,-5.25234 12,-11.65625 l 0,-0.0625 c 0,-6.403912 -4.99616,-11.59375 -11.9375,-11.59375 z m -80.28125,0.40625 0,22.53125 16.15625,0 0,-4.53125 -11.21875,0 0,-18 -4.9375,0 z m 19.875,0 0,22.53125 17.15625,0 0,-4.4375 -12.21875,0 0,-4.71875 10.59375,0 0,-4.40625 -10.59375,0 0,-4.5625 12.03125,0 0,-4.40625 -16.96875,0 z m 21.53125,0 0,22.53125 4.84375,0 0,-14.625 6.28125,9.53125 0.125,0 6.34375,-9.625 0,14.71875 4.90625,0 0,-22.53125 -5.34375,0 -5.90625,9.5 -5.90625,-9.5 -5.34375,0 z m 55.21875,0 0,22.53125 4.875,0 0,-14.34375 10.90625,14.34375 4.1875,0 0,-22.53125 -4.875,0 0,13.84375 -10.53125,-13.84375 -4.5625,0 z m 25.375,0 0,22.53125 4.875,0 0,-14.34375 10.90625,14.34375 4.21875,0 0,-22.53125 -4.90625,0 0,13.84375 -10.53125,-13.84375 -4.5625,0 z m 25.59375,0 0,22.53125 4.96875,0 0,-22.53125 -4.96875,0 z m 10.59375,0 0,22.53125 17.125,0 0,-4.4375 -12.21875,0 0,-4.71875 10.59375,0 0,-4.40625 -10.59375,0 0,-4.5625 12.0625,0 0,-4.40625 -16.96875,0 z m 21.5,0 0,22.53125 4.96875,0 0,-7.21875 3.875,0 4.84375,7.21875 5.78125,0 -5.5,-8.0625 c 2.86453,-1.059812 4.8125,-3.3626 4.8125,-7 l 0,-0.0625 c 0,-4.635887 -3.16463,-7.40625 -8.46875,-7.40625 l -10.3125,0 z M 235,89.28125 c 3.98309,0 6.8125,3.233637 6.8125,7.09375 l 0,0.0625 c 0,3.86388 -2.76191,7.03125 -6.75,7.03125 -3.99184,0 -6.8125,-3.22988 -6.8125,-7.09375 l 0,-0.0625 c 0,-3.863875 2.76316,-7.03125 6.75,-7.03125 z m 104.4375,0.3125 4.90625,0 c 2.40835,0 3.90625,1.092875 3.90625,3.21875 l 0,0.0625 c 0,1.8994 -1.40541,3.1875 -3.8125,3.1875 l -5,0 0,-6.46875 z m -254.0625,25.5625 0,20.90625 49.25,0.0312 0,-20.9375 -49.25,0 z m 115.75,0.0312 -3.03125,4.75 3.09375,0 3.4375,-3.21875 -3.5,-1.53125 z m -46.34375,1.125 0,19.59375 4.0625,0 0,-19.59375 -4.0625,0 z m 116.375,0 0,19.59375 4.09375,0 0,-19.59375 -4.09375,0 z m 55.125,0 0,19.59375 4.09375,0 0,-19.59375 -4.09375,0 z m 41.75,1.53125 0,3.6875 -1.71875,0 0,3.5 1.71875,0 0,6.8125 c 0,3.32959 1.69416,4.3125 4.1875,4.3125 1.36728,0 2.35889,-0.30324 3.21875,-0.8125 l 0,-3.28125 c -0.59365,0.31781 -1.24887,0.5 -2,0.5 -0.91235,0 -1.3125,-0.46531 -1.3125,-1.40625 l 0,-6.125 3.375,0 0,-3.5 -3.375,0 0,-3.6875 -4.09375,0 z m -183.1875,3.4063 c -4.40301,0 -7.5625,3.39089 -7.5625,7.5 l 0,0.0625 c 0,4.10661 3.18322,7.4375 7.5,7.4375 2.87328,0 4.48147,-1.12096 5.875,-2.65625 L 188.25,131.1875 c -0.99733,0.94095 -1.91024,1.53125 -3.28125,1.53125 -2.22089,0 -3.65625,-1.76654 -3.65625,-3.96875 l 0,-0.0625 c 0,-2.12462 1.46034,-3.90625 3.5,-3.90625 1.446,0 2.34015,0.59653 3.25,1.5625 l 2.5,-2.65625 c -1.33853,-1.50526 -3.0117,-2.4375 -5.71875,-2.4375 z m 14.875,0 c -4.18305,0 -7.125,3.38839 -7.125,7.5 l 0,0.0625 c 0,4.40441 3.21571,7.4375 7.53125,7.4375 2.60456,0 4.53522,-1.02207 5.875,-2.6875 L 203.65625,131.5 c -1.12605,1.0473 -2.10148,1.46875 -3.46875,1.46875 -1.8247,0 -3.12756,-0.9594 -3.53125,-2.8125 l 10.03125,0 c 0.0175,-0.37537 0.0312,-0.62835 0.0312,-1.03125 l 0,-0.0625 c 0,-4.08159 -2.1983,-7.8125 -7,-7.8125 z m 16.4375,0 c -4.18305,0 -7.09375,3.39089 -7.09375,7.5 l 0,0.0625 c 0,4.40316 3.18321,7.4375 7.5,7.4375 2.60081,0 4.53148,-1.02207 5.875,-2.6875 L 220.125,131.5 c -1.12981,1.04605 -2.13272,1.46875 -3.5,1.46875 -1.82595,0 -3.09633,-0.96065 -3.5,-2.8125 l 10,0 c 0.025,-0.37662 0.0312,-0.63085 0.0312,-1.03125 l 0,-0.0625 c 0,-4.08034 -2.19705,-7.8125 -7,-7.8125 z m 27.4375,0 c -2.1159,0 -3.47267,1.00115 -4.46875,2.34375 l 0,-2.0625 -4.09375,0 0,18.6875 4.09375,0 0,-6.1875 c 0.96734,1.15241 2.30161,2.15625 4.46875,2.15625 3.40567,0 6.5625,-2.63144 6.5625,-7.4375 l 0,-0.0625 c 0,-4.80982 -3.20556,-7.4375 -6.5625,-7.4375 z m 16.65625,0 c -4.47675,0 -7.8125,3.3621 -7.8125,7.5 l 0,0.0625 c 0,4.13415 3.32825,7.4375 7.78125,7.4375 4.47801,0 7.78125,-3.36461 7.78125,-7.5 l 0,-0.0625 c 0,-4.13915 -3.297,-7.4375 -7.75,-7.4375 z m 80.375,0 c -4.19055,0 -7.125,3.39089 -7.125,7.5 l 0,0.0625 c 0,4.40316 3.18071,7.4375 7.5,7.4375 2.60831,0 4.53772,-1.02207 5.875,-2.6875 L 344.5625,131.5 c -1.12356,1.04605 -2.13398,1.46875 -3.5,1.46875 -1.8247,0 -3.10008,-0.96065 -3.5,-2.8125 l 10,0 c 0.0275,-0.37662 0.0625,-0.63085 0.0625,-1.03125 l 0,-0.0625 c 0,-4.08034 -2.19955,-7.8125 -7,-7.8125 z m 18.3125,0 c -2.06966,0 -3.27641,1.10379 -4.21875,2.3125 l 0,-2.03125 -4.0625,0 0,14.375 4.0625,0 0,-8 c 0,-1.93569 1.00401,-2.9375 2.5625,-2.9375 1.55349,0 2.46875,1.00181 2.46875,2.9375 l 0,8 4.0625,0 0,-9.3125 c 0,-3.30331 -1.79176,-5.34375 -4.875,-5.34375 z m -42.78125,0.125 c -2.43959,0 -3.98278,0.45555 -5.5625,1.15625 l 1,3.09375 c 1.31727,-0.48299 2.41651,-0.78125 3.96875,-0.78125 2.04216,0 3.09375,0.96831 3.09375,2.65625 l 0,0.21875 c -1.02109,-0.3466 -2.04775,-0.59375 -3.5,-0.59375 -3.40694,0 -5.8125,1.44809 -5.8125,4.59375 l 0,0.0625 c 0,2.84285 2.2242,4.40625 4.9375,4.40625 1.97968,0 3.34766,-0.70889 4.34375,-1.8125 l 0,1.53125 3.9375,0 0,-8.34375 c 0,-3.8914 -1.95324,-6.1875 -6.40625,-6.1875 z m -154.75,0.15625 5.625,14.4375 c -0.34869,0.72073 -0.70636,0.9375 -1.40625,0.9375 -0.53616,0 -1.21509,-0.24093 -1.75,-0.5625 l -1.375,2.96875 c 1.04234,0.61937 2.15025,1 3.625,1 2.43959,0 3.61519,-1.10582 4.71875,-4.03125 l 5.53125,-14.75 -4.25,0 -3.125,9.8125 -3.28125,-9.8125 -4.3125,0 z m 116.375,0 5.65625,14.4375 c -0.34994,0.72073 -0.74261,0.9375 -1.4375,0.9375 -0.54366,0 -1.21509,-0.24093 -1.75,-0.5625 l -1.34375,2.96875 c 1.04608,0.61937 2.12025,1 3.59375,1 2.44584,0 3.61894,-1.10582 4.71875,-4.03125 l 5.53125,-14.75 -4.21875,0 -3.15625,9.8125 -3.25,-9.8125 -4.34375,0 z m 15.71875,0 5.65625,14.5 3.6875,0 5.65625,-14.5 -4.21875,0 -3.25,9.625 -3.21875,-9.625 -4.3125,0 z m -93.78125,3 c 1.71471,0 2.78754,1.23943 3.03125,3.0625 l -6.15625,0 c 0.32744,-1.84935 1.43529,-3.0625 3.125,-3.0625 z m 16.4375,0 c 1.71596,0 2.7888,1.23817 3.03125,3.0625 l -6.125,0 c 0.32369,-1.8506 1.40279,-3.0625 3.09375,-3.0625 z m 124.46875,0 c 1.71971,0 2.76379,1.23817 3,3.0625 l -6.125,0 c 0.31994,-1.8506 1.43654,-3.0625 3.125,-3.0625 z m -98.0625,0.1875 c 1.90967,0 3.5,1.58011 3.5,3.96875 l 0,0.0625 c 0,2.41743 -1.59033,3.96875 -3.5,3.96875 -1.89969,0 -3.5,-1.5801 -3.5,-3.96875 l 0,-0.0625 c 0,-2.38864 1.60031,-3.96875 3.5,-3.96875 z m 17.65625,0.0625 c 2.25087,0 3.78125,1.84662 3.78125,3.96875 l 0,0.0625 c 0,2.12213 -1.41664,3.90625 -3.75,3.90625 -2.24963,0 -3.78125,-1.84538 -3.78125,-3.96875 l 0,-0.0625 c 0,-2.12338 1.4104,-3.90625 3.75,-3.90625 z m 55.90625,4.8125 c 0.98609,0 1.89886,0.21217 2.59375,0.53125 l 0,0.71875 c 0,1.47647 -1.28782,2.53125 -3.1875,2.53125 -1.31854,0 -2.25,-0.64515 -2.25,-1.75 l 0,-0.0625 c 0,-1.29255 1.09654,-1.96875 2.84375,-1.96875 z"
         style="fill:#f033a3;fill-opacity:1;fill-rule:nonzero;stroke:none" />
      <path
         d="m 50,917.90742 57.70837,0 0,16.73677 -39.412424,0 0,6.49651 L 50,941.1417 50,917.90742 z"
         style="fill:#f57c14;fill-opacity:1;fill-rule:nonzero;stroke:none"
         id="path168"
         inkscape:connector-curvature="0" />
      <path
         inkscape:connector-curvature="0"
         id="path182"
         style="fill:#db1f26;fill-opacity:1;fill-rule:nonzero;stroke:none"
         d="m 50,941.1413 18.295945,0 0,65.4496 -18.295945,0 0,-65.4496 z" />
    </g>
  </g>
</svg>
