<?xml version="1.0" encoding="UTF-8" standalone="no"?>
<svg
   xmlns:dc="http://purl.org/dc/elements/1.1/"
   xmlns:cc="http://creativecommons.org/ns#"
   xmlns:rdf="http://www.w3.org/1999/02/22-rdf-syntax-ns#"
   xmlns:svg="http://www.w3.org/2000/svg"
   xmlns="http://www.w3.org/2000/svg"
   xmlns:sodipodi="http://sodipodi.sourceforge.net/DTD/sodipodi-0.dtd"
   xmlns:inkscape="http://www.inkscape.org/namespaces/inkscape"
   version="1.0"
   viewBox="0 0 464.000000 967.000000"
   id="svg15357"
   inkscape:version="0.91 r13725"
   sodipodi:docname="Mobile-Phone-Icon.svg">
  <defs
     id="defs15441" />
  <sodipodi:namedview
     pagecolor="#ffffff"
     bordercolor="#666666"
     borderopacity="1"
     objecttolerance="10"
     gridtolerance="10"
     guidetolerance="10"
     inkscape:pageopacity="0"
     inkscape:pageshadow="2"
     inkscape:window-width="1511"
     inkscape:window-height="839"
     id="namedview15439"
     showgrid="false"
     inkscape:zoom="0.25767182"
     inkscape:cx="453.5381"
     inkscape:cy="305.52229"
     inkscape:window-x="0"
     inkscape:window-y="0"
     inkscape:window-maximized="0"
     inkscape:current-layer="g15985" />
  <g
     transform="translate(0 967) scale(0.1 -0.1)"
     fill="#000000"
     id="g15359">
    <g
       id="g15985">
      <g
         id="g16012">
        <path
           id="path15365"
           transform="matrix(10,0,0,-10,0,9670)"
           d="M 0.009765625 -13.623047 L 0.009765625 -0.50195312 C 0.0068468239 -0.50160941 0.002917685 -0.50229693 0 -0.50195312 L 0 654.69922 L 0 758.80078 L 0 862.90039 L 0 967 L 232 967 L 464 967 L 463.2832 0.6015625 L 463.2832 -13.623047 L 0.009765625 -13.623047 z M 304.62695 31.824219 C 306.1806 31.844504 307.74801 31.886092 309.32617 31.943359 C 327.96809 35.063249 333.77516 42.709854 340.09375 53.152344 C 345.21528 67.236534 339.69349 77.858079 336.5 82.599609 C 332.46182 87.454559 331.66068 88.008499 327.30078 90.099609 L 322.5 92.5 L 322.80078 130.5 C 323.00078 151.4 323.29961 173.2 323.59961 179 C 323.79961 184.8 324.7 209.20078 325.5 233.30078 C 326.3 257.40078 327.2 277.5 327.5 278 C 327.9 278.6 333.60039 279 340.40039 279 L 352.80078 279 L 353.30078 282.19922 C 353.90078 285.59922 354.6 325.5 355.5 403 C 355.8 428 356.2 456.6 356.5 466.5 C 356.8 476.4 357.2 497.1 357.5 512.5 C 357.8 527.9 358.2 548.4 358.5 558 C 358.8 567.6 359.2 587.2 359.5 601.5 C 359.8 615.8 360.19961 640.8 360.59961 657 C 360.89961 673.2 361.3 694.6 361.5 704.5 C 361.7 714.4 362.10039 734.6 362.40039 749.5 C 362.70039 764.3 363.2 790 363.5 806.5 C 363.8 823 364.39922 846.6 364.69922 859 C 365.69922 892.1 365.50039 903 363.90039 904 C 363.20039 904.5 349.79961 904.79922 334.09961 904.69922 C 318.39961 904.59922 298.3 904.79961 289.5 905.09961 C 256.3 906.49961 118.41016 907.29922 118.41016 906.19922 C 116.2327 864.40703 115.814 847.37854 115.40039 779 C 115.10039 730.3 114.79922 682.69961 114.69922 673.09961 C 114.23445 661.89439 114.22645 652.05518 114.30078 648.19922 C 114.30078 645.09922 113.99922 625.8 113.69922 605.5 C 112.69922 554.2 112.1 513.9 111.5 455 C 111.2 427.2 110.59922 385.1 110.19922 361.5 C 109.79922 337.8 109.5 310.2 109.5 300 L 109.5 281.5 L 147.5 281.19922 C 168.4 281.09922 196.5 280.79961 210 280.59961 C 228.13056 280.35313 244.65554 279.61641 257.69922 279.59961 C 271.69922 279.59961 275.1 279.29922 275.5 278.19922 C 275.8 277.39922 275.59961 258.89961 275.09961 237.09961 C 274.49961 215.29961 273.8 178.8 273.5 156 C 273.2 133.2 272.70039 109.70039 272.40039 103.90039 L 271.80078 93.300781 L 266.40039 90.599609 C 255.73529 83.512729 247.44724 65.19372 253.59961 55.5 C 261.09677 35.743678 281.3223 31.519947 304.62695 31.824219 z " />
        <path
           d="m 2855,9135 c -151,-33 -214,-119 -141,-190 18,-18 100,-53 140,-60 21,-4 39,-13 41,-19 2,-6 6,-163 10,-349 -9.1471,-509.5146 22.6737,-1007.9467 30,-1432 3,-170 8,-329 11,-351 3,-29 1,-43 -8,-47 -8,-2 -232,-6 -498,-6 -267,-1 -572,-4 -678,-7 -105,-2 -258,-4 -339,-4 l -146,0 7,-757 c 4,-417 9,-812 11,-878 2,-66 7,-383 10,-705 10,-1034 30,-2557 44,-3219 l 6,-314 100,2 c 55,2 113,4 129,6 26,3 534,10 1484,20 200,2 367,6 370,10 4,4 7,48 6,98 -1,122 -13,722 -19,967 -2,107 -7,337 -10,510 -8,489 -15,816 -20,1050 -3,118 -7,341 -10,495 -3,154 -8,357 -10,450 -2,94 -7,325 -10,515 -11,708 -26,1430 -31,1598 l -6,172 -134,0 -134,0 -2,118 c -1,64 -2,137 -3,162 -35.7089,1518.9479 -23.2937,832.1198 -28,1590 l -2,325 36,5 c 55,9 144,56 159,84 29,55 -24,124 -113,149 -79,22 -184,27 -252,12 z m 358,-2572 c 7,-12 16,-391 22,-943 3,-272 7,-558 10,-635 3,-77 7,-284 10,-460 3,-176 7,-385 10,-465 3,-80 7,-275 10,-435 3,-159 7,-380 10,-490 2,-110 7,-384 11,-610 3,-225 7,-448 9,-495 2,-47 6,-309 10,-582 l 7,-496 -447,-1 c -245,0 -450,-3 -453,-5 -15,-9 -941,-16 -946,-8 -7,12 -14,311 -21,932 -5,503 -10,826 -20,1435 -3,165 -7,467 -10,670 -3,204 -8,503 -10,665 -12,667 -25,1903 -22,1907 3,2 247,6 543,10 297,3 540,6 541,7 8,6 732,5 736,-1 z"
           id="path15367"
           inkscape:connector-curvature="0"
           sodipodi:nodetypes="cccsccccccsccscccccccccccsccccccccccccccccssscccsccccccccccccc" />
        <path
           d="m1710 6212c-30-2-58-9-62-15-4-7-6-52-4-102 3-49 6-209 7-354 1-146 4-272 6-280 3-14 23-16 136-14 73 1 355 3 627 3 272 1 512 4 534 7l38 6-7 351c-4 193-8 362-9 376l-3 25h-604c-332 0-629-1-659-3zm1150-144c0-18 3-135 6-260l6-228-58-1c-83-1-633-7-852-9-101-1-185 0-187 2-1 2-5 119-9 260l-6 257 103 3c56 2 303 4 550 6l447 3v-33z"
           id="path15369" />
        <path
           d="m 2260,4965 c -322,-4 -589,-9 -593,-12 -7,-4 0,-482 7,-490 5,-6 396,-7.2373 420,-1.2373 121.2332,-3.8559 317.4225,7.5462 435,8.2373 190,1 363,3 384,6 38.9287,-7.646 103.2328,-7.1837 93,44 -3,16 -6,124 -6,240 l -1,210 c -247.7875,-4.0975 -509.1109,-1.4869 -739,-5 z m 203,-121 c 15,-5 17,-20 17,-129 l 0,-123 -145,-1 -145,-1 0,124 0,125 43,3 c 77,6 212,6 230,2 z m 421,-16 c 3,-13 6,-69 6,-125 0,-75 -3,-103 -12,-104 -7,0 -71,-2 -141,-4 -117,-3 -130.0593,-10.5339 -136.0593,5.4661 -4,10 -4.9407,77.5339 -2.9407,138.5339 l 3,111 138,0 c 135,0 139,-1 145,-22 z m -811,-56 c 3,-37 4,-92 4,-122 l -2,-55 -142,-5 c -167,-6 -153,-19 -153,142 l 0,106 144,1 143,0 z"
           id="path15373"
           inkscape:connector-curvature="0"
           sodipodi:nodetypes="cccccccccccsccccccccscccccscccccscccc" />
        <path
           d="m2229 4079c-11-6-9-332 2-343 7-8 235-13 242-6 2 3 2 83-1 178l-5 172h-41c-22 0-74 2-114 3-40 2-77 0-83-4z"
           id="path15375" />
        <path
           d="m2757 4075c-7-16 3-327 10-335 8-9 235-5 240 3 3 5 2 85-2 178l-7 169h-118c-94 0-119-3-123-15z"
           id="path15377" />
        <path
           d="m1760 4072l-70-3v-174-175l38-1c20-1 40-1 45 0 4 1 43 2 87 2l80 1v173c0 194 2 189-74 183-20-2-67-4-106-6z"
           id="path15379" />
        <path
           d="m2285 3492c-22-2-43-9-47-15-9-13-10-279-2-313 7-27 38-32 159-25l90 6-3 170c-2 94-5 171-5 171-5 4-158 8-192 6z"
           id="path15381" />
        <path
           d="m2794 3493c-30-6-32-22-27-175 6-192-9-173 130-173h118l-3 170c-3 115-7 172-15 177-12 8-165 9-203 1z"
           id="path15383" />
        <path
           d="m1704 3479c-7-12-5-329 2-340 5-9 159-11 212-2l32 5v162c0 88-4 166-8 172-9 13-230 16-238 3z"
           id="path15385" />
        <path
           d="m2341 2902l-103-3 4-168c3-92 7-172 11-177 6-10 224-10 234 0 4 4 6 183 3 337 0 11-41 14-149 11z"
           id="path15387" />
        <path
           d="m2789 2899c-18-11-16-339 2-350 7-4 33-6 58-4s77 3 115 4l68 1-4 169c-2 94-6 173-10 176-9 9-215 13-229 4z"
           id="path15389" />
        <path
           d="m1750 2892c-14-2-29-8-34-13-10-9-10-329 0-338 10-10 229-6 236 4 9 12 9 302 0 330-6 18-16 20-92 20-47 0-96-1-110-3z"
           id="path15391" />
        <path
           d="m1808 2302l-87-3-6-32c-5-24-1-314 4-323 1-1 38 0 84 2 45 2 102 3 126 4h43l-4 169c-3 92-8 173-11 178-4 5-19 10-34 9-15 0-67-2-115-4z"
           id="path15393" />
        <path
           d="m2278 2303l-28-4v-162c0-89 5-169 10-177 10-16 93-19 191-6l56 7-3 156c-2 85-6 163-9 173-5 16-17 18-98 18-51-1-104-3-119-5z"
           id="path15395" />
        <path
           d="m2788 2300c-1-5-2-84 0-174l3-164 67-4c37-2 92-1 122 2l55 5 3 140c2 77 0 155-3 173l-6 32h-119c-69 0-120-4-122-10z"
           id="path15397" />
        <path
           d="m2115 1630l-80-5-3-115c-2-63 0-129 3-147 6-31 6-31 73-35 104-6 102-9 101 145 0 73-3 139-7 147-6 12-22 14-87 10z"
           id="path15399" />
        <path
           d="m2348 1633c-55-4-58-5-59-31-3-58 3-337 8-344 5-9 138-10 171-2 22 6 22 9 22 173 0 118-4 172-12 184-15 20-52 25-130 20z"
           id="path15401" />
        <path
           d="m2638 1633l-66-4-4-67c-2-37-1-103 2-147l5-80h77c42 0 80 4 84 8 5 4 9 69 9 143 2 120 0 136-16 145-10 5-19 8-21 7s-33-3-70-5z"
           id="path15403" />
        <path
           d="m3 9435c0-113 2-145 7-110 11 65 11 168 1 225-6 31-8-4-8-115z"
           id="path15421" />
        <path
           d="m2111 9344c0-11 3-14 6-6 3 7 2 16-1 19-3 4-6-2-5-13z"
           id="path15423" />
        <path
           d="m1975 8729c-4-6-5-13-2-16 7-7 27 6 27 18s-17 12-25-2z"
           id="path15425" />
      </g>
    </g>
  </g>
  <metadata
     id="metadata15437">
    <rdf:RDF>
      <cc:Work>
        <dc:format>image/svg+xml</dc:format>
        <dc:type
           rdf:resource="http://purl.org/dc/dcmitype/StillImage" />
        <cc:license
           rdf:resource="http://creativecommons.org/licenses/publicdomain/" />
        <dc:publisher>
          <cc:Agent
             rdf:about="http://openclipart.org/">
            <dc:title>Openclipart</dc:title>
          </cc:Agent>
        </dc:publisher>
      </cc:Work>
      <cc:License
         rdf:about="http://creativecommons.org/licenses/publicdomain/">
        <cc:permits
           rdf:resource="http://creativecommons.org/ns#Reproduction" />
        <cc:permits
           rdf:resource="http://creativecommons.org/ns#Distribution" />
        <cc:permits
           rdf:resource="http://creativecommons.org/ns#DerivativeWorks" />
      </cc:License>
    </rdf:RDF>
  </metadata>
</svg>
